<svg id="Ebene_1" data-name="Ebene 1" xmlns="http://www.w3.org/2000/svg" viewBox="0 0 64 64"><defs><style>.cls-1{fill:#dd0031;}.cls-2{fill:#c3002f;}.cls-3{fill:#fff;}</style></defs><polygon class="cls-1" points="32 1 32 1 32 1 3.14 11.29 7.54 49.45 32 63 32 63 32 63 56.46 49.45 60.86 11.29 32 1"/><polygon class="cls-2" points="32 1 32 7.88 32 7.85 32 39.25 32 39.25 32 63 32 63 56.46 49.45 60.86 11.29 32 1"/><path class="cls-3" d="M47.53,27.81,45,19.26A4.54,4.54,0,0,0,40.58,16H23.42A4.54,4.54,0,0,0,19,19.26l-2.57,8.55A4.57,4.57,0,0,0,13.71,32v9.14A2.29,2.29,0,0,0,16,43.43h0v2.28A2.28,2.28,0,0,0,18.29,48h2.28a2.29,2.29,0,0,0,2.29-2.29V43.43H41.14v2.28A2.29,2.29,0,0,0,43.43,48h2.28A2.28,2.28,0,0,0,48,45.71V43.43h0a2.29,2.29,0,0,0,2.29-2.29V32A4.57,4.57,0,0,0,47.53,27.81ZM22.84,20H41.16l2.19,7.31H20.65Zm-.59,18.29a2.44,2.44,0,1,1,2.43-2.44A2.44,2.44,0,0,1,22.25,38.24Zm19.5,0a2.44,2.44,0,1,1,2.44-2.44A2.43,2.43,0,0,1,41.75,38.24Z"/></svg>