<svg id="Ebene_1" data-name="Ebene 1" xmlns="http://www.w3.org/2000/svg" viewBox="0 0 238.34 256"><defs><style>.cls-1{fill:#dd0031;}.cls-2{fill:#c3002f;}.cls-3{fill:#fff;}</style></defs><polygon class="cls-1" points="119.17 0 119.17 0 119.17 0 0 42.5 18.18 200.06 119.17 256 119.17 256 119.17 256 220.16 200.06 238.34 42.5 119.17 0"/><polygon class="cls-2" points="119.17 0 119.17 28.42 119.17 28.29 119.17 157.95 119.17 157.95 119.17 256 119.17 256 220.16 200.06 238.34 42.5 119.17 0"/><path class="cls-3" d="M320.12,238.69l-10.59-35.3a18.75,18.75,0,0,0-18.08-13.45h-70.9a18.75,18.75,0,0,0-18.08,13.45l-10.59,35.3A18.89,18.89,0,0,0,180.5,256v37.75a9.44,9.44,0,0,0,9.44,9.44h0v9.44a9.43,9.43,0,0,0,9.43,9.43h9.44a9.44,9.44,0,0,0,9.44-9.43v-9.44h75.5v9.44a9.44,9.44,0,0,0,9.44,9.43h9.44a9.43,9.43,0,0,0,9.43-9.43v-9.44h0a9.44,9.44,0,0,0,9.44-9.44V256A18.89,18.89,0,0,0,320.12,238.69ZM218.18,206.24h75.64l9.06,30.21H209.12Zm-2.45,75.52a10.07,10.07,0,1,1,10.06-10.07A10.07,10.07,0,0,1,215.73,281.76Zm80.54,0a10.07,10.07,0,1,1,10.07-10.07A10.06,10.06,0,0,1,296.27,281.76Z" transform="translate(-136.83 -128)"/></svg>